<svg width="20" height="21" viewBox="0 0 20 21" fill="none" xmlns="http://www.w3.org/2000/svg">
<path d="M18.4167 8.08333C18.3333 5.25 16.0833 3 13.25 3C12.3333 3 10.9167 3.66667 10.3333 4.75C10.25 5 9.91667 5 9.83334 4.75C9.16667 3.75 7.83333 3.08333 6.83333 3.08333C4.08333 3.08333 1.75 5.33333 1.66667 8.08333V8.25C1.66667 9.66667 2.25 11 3.25 12C3.25 12 3.25 12 3.25 12.0833C3.33333 12.1667 7.33334 15.6667 9.16667 17.25C9.66667 17.6667 10.4167 17.6667 10.9167 17.25C12.75 15.6667 16.6667 12.1667 16.8333 12.0833C16.8333 12.0833 16.8333 12.0833 16.8333 12C17.8333 11.0833 18.4167 9.75 18.4167 8.25V8.08333Z" fill="#00B207"/>
</svg>
