<svg width="13" height="12" viewBox="0 0 13 12" fill="none" xmlns="http://www.w3.org/2000/svg">
<path d="M12.8125 4.1875C12.75 2.0625 11.0625 0.375 8.9375 0.375C8.25 0.375 7.1875 0.875 6.75 1.6875C6.6875 1.875 6.4375 1.875 6.375 1.6875C5.875 0.9375 4.875 0.4375 4.125 0.4375C2.0625 0.4375 0.3125 2.125 0.25 4.1875V4.3125C0.25 5.375 0.6875 6.375 1.4375 7.125C1.4375 7.125 1.4375 7.125 1.4375 7.1875C1.5 7.25 4.5 9.875 5.875 11.0625C6.25 11.375 6.8125 11.375 7.1875 11.0625C8.5625 9.875 11.5 7.25 11.625 7.1875C11.625 7.1875 11.625 7.1875 11.625 7.125C12.375 6.4375 12.8125 5.4375 12.8125 4.3125V4.1875Z" fill="#EA4B48"/>
</svg>
