<svg width="16" height="16" viewBox="0 0 16 16" fill="none" xmlns="http://www.w3.org/2000/svg">
<path fill-rule="evenodd" clip-rule="evenodd" d="M14.4128 5.11735C14.4098 5.12968 14.4098 5.14252 14.4128 5.15485C14.4168 5.22782 14.4147 5.30099 14.4065 5.3736V5.45485C14.4002 5.78196 14.2784 6.0963 14.0628 6.34235L10.3128 10.6236L8.55027 12.6111C8.42115 12.7517 8.26627 12.8663 8.09402 12.9486C8.01421 12.987 7.93035 13.0163 7.84402 13.0361H7.80027L7.58152 13.0674H7.50652C7.44208 13.0735 7.3772 13.0735 7.31277 13.0674H7.21902L7.05027 13.0236L6.95652 12.9799L6.80027 12.8986C6.77381 12.8819 6.74873 12.8631 6.72527 12.8424L6.60652 12.7611L5.74402 13.6236C5.44935 13.9041 4.99871 13.9406 4.66277 13.7111C4.50638 13.87 4.30219 13.9732 4.08152 14.0049L2.51277 14.1861C2.32002 14.2179 2.12347 14.1578 1.98152 14.0236L1.69402 13.7361C1.43094 13.3905 1.48898 12.8985 1.82527 12.6236L2.70027 11.7486C2.45849 11.4061 2.49805 10.9393 2.79402 10.6424L3.65652 9.77985C3.62732 9.74176 3.6002 9.70212 3.57527 9.6611C3.55455 9.63764 3.53574 9.61256 3.51902 9.5861L3.39402 9.3361C3.34402 9.27985 3.34402 9.2236 3.34402 9.1611V9.0736C3.33761 9.00709 3.33761 8.94011 3.34402 8.8736V8.5736C3.34786 8.56354 3.34786 8.55241 3.34402 8.54235C3.40786 8.26484 3.55901 8.01512 3.77527 7.82985L10.044 2.3111C10.5994 1.8211 11.4404 1.84849 11.9628 2.3736L14.0315 4.4236C14.223 4.61314 14.3554 4.85412 14.4128 5.11735ZM8.56902 8.47985L11.3815 5.66735C11.4709 5.5803 11.5212 5.46084 11.5212 5.3361C11.5212 5.21136 11.4709 5.09191 11.3815 5.00485C11.1985 4.82207 10.902 4.82207 10.719 5.00485L7.90652 7.81735C7.72373 8.00036 7.72373 8.29684 7.90652 8.47985C7.99395 8.56838 8.11335 8.61794 8.23777 8.61735C8.36261 8.62017 8.48287 8.57025 8.56902 8.47985Z" fill="#00B307"/>
</svg>
