<svg width="40" height="40" viewBox="0 0 40 40" fill="none" xmlns="http://www.w3.org/2000/svg">
<path fill-rule="evenodd" clip-rule="evenodd" d="M27.5859 11.8694V6.66938C27.5868 5.31091 27.0349 4.01055 26.0572 3.06742C25.0795 2.12428 23.7601 1.61957 22.4025 1.66938H16.9359C15.5783 1.61957 14.2589 2.12428 13.2812 3.06742C12.3035 4.01055 11.7516 5.31091 11.7525 6.66938V11.8694C8.30451 13.0904 6.2073 16.5857 6.75254 20.2027L8.33587 29.8194C9.09697 33.6856 12.5299 36.4431 16.4692 36.3527H22.9359C26.8752 36.4431 30.3081 33.6856 31.0692 29.8194L32.6525 20.2027C33.1896 16.5675 31.0604 13.0655 27.5859 11.8694ZM21.3359 24.886L21.6859 25.9194C21.8393 26.3923 21.7592 26.9101 21.4698 27.3145C21.1805 27.7189 20.7164 27.9619 20.2192 27.9694H18.9859C18.4887 27.9619 18.0246 27.7189 17.7352 27.3145C17.4459 26.9101 17.3657 26.3923 17.5192 25.9194L17.8692 24.886C18.0579 24.3023 17.9107 23.662 17.4859 23.2194C16.5415 22.0974 16.6367 20.4333 17.7029 19.4263C18.7692 18.4194 20.4359 18.4194 21.5022 19.4263C22.5684 20.4333 22.6636 22.0974 21.7192 23.2194C21.2944 23.662 21.1472 24.3023 21.3359 24.886ZM14.2525 11.3027H14.8525V11.3194H25.0859V6.66938C25.0228 5.24877 23.8234 4.14627 22.4025 4.20272H16.9359C15.515 4.14627 14.3156 5.24877 14.2525 6.66938V11.3027Z" fill="#00B207"/>
</svg>
