<svg width="24" height="25" viewBox="0 0 24 25" fill="none" xmlns="http://www.w3.org/2000/svg">
<path d="M15.5 14.5014H14.71L14.43 14.2314C15.0549 13.5054 15.5117 12.6502 15.7675 11.7271C16.0234 10.8039 16.072 9.83559 15.91 8.89144C15.44 6.11144 13.12 3.89144 10.32 3.55144C9.33559 3.42691 8.33576 3.52921 7.397 3.85053C6.45824 4.17185 5.60542 4.70366 4.90381 5.40527C4.20219 6.10688 3.67038 6.9597 3.34906 7.89846C3.02775 8.83723 2.92544 9.83706 3.04997 10.8214C3.38997 13.6214 5.60998 15.9414 8.38998 16.4114C9.33413 16.5735 10.3024 16.5248 11.2256 16.269C12.1487 16.0131 13.0039 15.5564 13.73 14.9314L14 15.2114V16.0014L18.25 20.2514C18.66 20.6614 19.33 20.6614 19.74 20.2514C20.15 19.8414 20.15 19.1714 19.74 18.7614L15.5 14.5014ZM9.49997 14.5014C7.00997 14.5014 4.99997 12.4914 4.99997 10.0014C4.99997 7.51144 7.00997 5.50144 9.49997 5.50144C11.99 5.50144 14 7.51144 14 10.0014C14 12.4914 11.99 14.5014 9.49997 14.5014Z" fill="#77BC2B"/>
</svg>
