<svg width="40" height="40" viewBox="0 0 40 40" fill="none" xmlns="http://www.w3.org/2000/svg">
<path d="M20.0851 3.33398L17.8018 8.00065C16.1702 11.3346 13.9835 14.3667 11.3351 16.9673L11.0351 17.2507C9.33424 18.9019 8.36241 21.1635 8.33514 23.534V23.834C8.29009 28.4759 11.0561 32.6842 15.3351 34.484L15.7685 34.6673C18.5749 35.8594 21.7454 35.8594 24.5518 34.6673H24.6518C28.9628 32.7943 31.7288 28.5172 31.6685 23.8173V16.584C30.2318 19.8649 27.6228 22.4917 24.3518 23.9507C24.3518 23.9507 24.3518 23.9507 24.2518 23.9507C24.1518 23.9507 22.9851 24.434 22.4851 23.9507C22.0386 23.4988 21.9958 22.786 22.3851 22.284L22.5018 22.2007H22.5851C26.4114 19.2923 27.3034 13.9035 24.6185 9.91732C22.4518 6.61732 20.0851 3.33398 20.0851 3.33398Z" fill="#00B207"/>
</svg>
