<svg width="18" height="19" viewBox="0 0 18 19" fill="none" xmlns="http://www.w3.org/2000/svg">
<path d="M9.13503 9.01235C10.3632 9.01252 11.3646 8.02782 11.385 6.79985V5.95985C11.3851 5.46131 11.185 4.9836 10.8297 4.63391C10.4744 4.28422 9.99351 4.09181 9.49503 4.09985H8.78253C7.75821 4.10398 6.93002 4.93552 6.93003 5.95985V6.79985C6.94997 8.01052 7.92444 8.9883 9.13503 9.01235Z" fill="#00B207"/>
<path d="M17.085 12.8824L16.995 11.7499C16.8977 11.1811 16.4095 10.7621 15.8325 10.7524H12.5925C12.5428 10.7446 12.4922 10.7446 12.4425 10.7524C12.1551 10.4295 11.7423 10.2463 11.31 10.2499H6.96753C6.50976 10.2479 6.07613 10.455 5.79003 10.8124C5.66749 10.7675 5.53801 10.7447 5.40753 10.7449H2.16753C1.58822 10.7553 1.09909 11.1781 1.00503 11.7499L0.915029 12.9199C0.83966 13.2786 0.926265 13.6524 1.15175 13.9415C1.37724 14.2306 1.71868 14.4056 2.08503 14.4199H5.49753C5.56481 14.4276 5.63275 14.4276 5.70003 14.4199C5.9975 14.7482 6.41949 14.936 6.86253 14.9374H11.415C11.8446 14.9353 12.2543 14.7562 12.5475 14.4424H15.915C16.2947 14.4319 16.6488 14.2487 16.8767 13.9448C17.1045 13.641 17.1813 13.2498 17.085 12.8824Z" fill="#00B207"/>
<path d="M14.25 9.58235C15.1613 9.58235 15.9 8.84362 15.9 7.93235V7.29485C15.9002 6.92027 15.7488 6.56155 15.4805 6.30024C15.2121 6.03893 14.8495 5.89723 14.475 5.90735H13.95C13.1837 5.90735 12.5625 6.52856 12.5625 7.29485V7.93235C12.5624 8.37653 12.7414 8.802 13.059 9.11254C13.3766 9.42307 13.806 9.59245 14.25 9.58235Z" fill="#00B207"/>
<path d="M3.78753 9.58235C4.6988 9.58235 5.43753 8.84362 5.43753 7.93235V7.29485C5.43753 6.52856 4.81633 5.90735 4.05003 5.90735H3.52503C2.75874 5.90735 2.13753 6.52856 2.13753 7.29485V7.93235C2.13753 8.84362 2.87626 9.58235 3.78753 9.58235Z" fill="#00B207"/>
</svg>
