<svg width="40" height="40" viewBox="0 0 40 40" fill="none" xmlns="http://www.w3.org/2000/svg">
<path fill-rule="evenodd" clip-rule="evenodd" d="M20.5834 11.8673C18.3416 11.818 16.1746 12.6741 14.5719 14.2423C12.9693 15.8105 12.0662 17.9584 12.0667 20.2007C12.0542 21.9925 12.6084 23.7425 13.65 25.2007C15.3147 27.4282 16.2413 30.1204 16.3 32.9007C16.566 34.9993 18.3513 36.5726 20.4667 36.5726C22.5821 36.5726 24.3674 34.9993 24.6334 32.9007C24.5489 30.238 25.3782 27.6267 26.9834 25.5007C28.1189 24.0772 28.757 22.321 28.8 20.5007C28.8753 15.8631 25.219 12.0213 20.5834 11.8673ZM18.4834 32.384C17.871 32.2837 17.4215 31.7545 17.4215 31.134C17.4215 30.5135 17.871 29.9843 18.4834 29.884H22.3167C22.9291 29.9843 23.3786 30.5135 23.3786 31.134C23.3786 31.7545 22.9291 32.2837 22.3167 32.384H18.4834ZM24.8834 19.934C24.874 20.618 25.4162 21.1825 26.1001 21.2007L26.1667 21.2173C26.8349 21.2083 27.3744 20.6688 27.3834 20.0007C27.4146 18.2296 26.7397 16.519 25.5077 15.2463C24.2757 13.9737 22.5878 13.2436 20.8167 13.2173C20.1264 13.2173 19.5667 13.777 19.5667 14.4673C19.5667 15.1577 20.1264 15.7173 20.8167 15.7173C23.0792 15.815 24.8677 17.6695 24.8834 19.934Z" fill="#00B207"/>
<path d="M20.4667 10.3507C21.1533 10.3417 21.7077 9.78725 21.7167 9.10065V4.58398C21.7167 4.1374 21.4785 3.72474 21.0917 3.50145C20.705 3.27816 20.2285 3.27816 19.8417 3.50145C19.455 3.72474 19.2167 4.1374 19.2167 4.58398V9.10065C19.2257 9.78725 19.7801 10.3417 20.4667 10.3507Z" fill="#00B207"/>
<path d="M32.65 8.11732C32.162 7.6299 31.3714 7.6299 30.8834 8.11732L27.7667 11.2173C27.4097 11.5748 27.3029 12.1121 27.4962 12.5789C27.6895 13.0457 28.1448 13.3502 28.65 13.3507C28.9818 13.3522 29.3002 13.22 29.5334 12.984L32.65 9.88398C33.1375 9.39596 33.1375 8.60535 32.65 8.11732Z" fill="#00B207"/>
<path d="M36.05 18.384H31.6667C30.9764 18.384 30.4167 18.9436 30.4167 19.634C30.4167 20.3243 30.9764 20.884 31.6667 20.884H36.05C36.7404 20.884 37.3 20.3243 37.3 19.634C37.3 18.9436 36.7404 18.384 36.05 18.384Z" fill="#00B207"/>
<path d="M8.96671 18.384H4.58337C3.89302 18.384 3.33337 18.9436 3.33337 19.634C3.33337 20.3243 3.89302 20.884 4.58337 20.884H8.96671C9.65706 20.884 10.2167 20.3243 10.2167 19.634C10.2167 18.9436 9.65706 18.384 8.96671 18.384Z" fill="#00B207"/>
<path d="M12.9834 12.984C13.2216 12.7518 13.356 12.4333 13.356 12.1007C13.356 11.768 13.2216 11.4495 12.9834 11.2173L9.88338 8.11732C9.57176 7.7829 9.10245 7.64524 8.65956 7.75834C8.21667 7.87145 7.87084 8.21728 7.75773 8.66017C7.64463 9.10306 7.78229 9.57237 8.11671 9.88398L11.2167 12.984C11.4498 13.22 11.7683 13.3522 12.1 13.3507C12.4322 13.3541 12.7513 13.2217 12.9834 12.984Z" fill="#00B207"/>
</svg>
