<svg width="19" height="19" viewBox="0 0 19 19" fill="none" xmlns="http://www.w3.org/2000/svg">
<path d="M12.9799 17H6.01995C5.26183 16.9724 4.55562 16.6078 4.09421 16.0056C3.63279 15.4035 3.46437 14.6267 3.63495 13.8875L3.81495 13.0325C4.02198 11.8751 5.01692 11.0245 6.19245 11H12.8075C13.983 11.0245 14.9779 11.8751 15.1849 13.0325L15.365 13.8875C15.5355 14.6267 15.3671 15.4035 14.9057 16.0056C14.4443 16.6078 13.7381 16.9724 12.9799 17Z" fill="#00B207"/>
<path d="M9.87495 9.50001H9.12495C7.46809 9.50001 6.12495 8.15687 6.12495 6.50001V4.52001C6.12295 3.85105 6.38781 3.20892 6.86083 2.73589C7.33386 2.26287 7.97599 1.99801 8.64495 2.00001H10.3549C11.0239 1.99801 11.666 2.26287 12.1391 2.73589C12.6121 3.20892 12.8769 3.85105 12.8749 4.52001V6.50001C12.8749 7.29566 12.5589 8.05872 11.9963 8.62133C11.4337 9.18394 10.6706 9.50001 9.87495 9.50001Z" fill="#00B207"/>
</svg>
