<svg width="15" height="15" viewBox="0 0 15 15" fill="none" xmlns="http://www.w3.org/2000/svg">
<path fill-rule="evenodd" clip-rule="evenodd" d="M3.75 1.25H11.25C12.6307 1.25 13.75 2.36929 13.75 3.75V11.25C13.75 12.6307 12.6307 13.75 11.25 13.75H3.75C2.36929 13.75 1.25 12.6307 1.25 11.25V3.75C1.25 2.36929 2.36929 1.25 3.75 1.25ZM9.675 9.675C9.85778 9.49199 9.85778 9.19551 9.675 9.0125L8.1625 7.5L9.675 5.9875C9.8471 5.80281 9.84202 5.51499 9.66351 5.33649C9.48501 5.15798 9.19719 5.1529 9.0125 5.325L7.5 6.8375L5.9875 5.325C5.80281 5.1529 5.51499 5.15798 5.33649 5.33649C5.15798 5.51499 5.1529 5.80281 5.325 5.9875L6.8375 7.5L5.325 9.0125C5.14222 9.19551 5.14222 9.49199 5.325 9.675C5.41428 9.76073 5.5325 9.80981 5.65625 9.8125C5.78026 9.81106 5.89892 9.7618 5.9875 9.675L7.5 8.1625L9.0125 9.675C9.10108 9.7618 9.21974 9.81106 9.34375 9.8125C9.4675 9.80981 9.58572 9.76073 9.675 9.675Z" fill="#EA4B48"/>
</svg>
