<svg width="40" height="40" viewBox="0 0 40 40" fill="none" xmlns="http://www.w3.org/2000/svg">
<path d="M19.3408 5.84514L10.2574 21.7618C9.91326 22.3505 9.91426 23.0793 10.26 23.6671C10.6058 24.2549 11.2423 24.6099 11.9241 24.5951H16.6907C17.3036 24.5907 17.8929 24.8311 18.3279 25.2629C18.7628 25.6947 19.0074 26.2822 19.0074 26.8951V32.9118C19.0131 33.6427 19.4943 34.2847 20.1943 34.4951C20.8943 34.7055 21.6498 34.4352 22.0574 33.8285L30.8574 20.6285C31.2426 20.0477 31.2789 19.3027 30.952 18.6872C30.6251 18.0718 29.9876 17.6846 29.2908 17.6785H24.7574C23.4872 17.6785 22.4574 16.6487 22.4574 15.3785V6.67847C22.4627 5.91949 21.9545 5.25277 21.2213 5.05672C20.4881 4.86066 19.7149 5.18479 19.3408 5.84514Z" fill="#00B207"/>
</svg>
