<svg width="23" height="19" viewBox="0 0 23 19" fill="none" xmlns="http://www.w3.org/2000/svg">
<path d="M1.31241 0.25C1.82736 0.256732 2.24318 0.672547 2.24991 1.1875V3.6875C2.23642 5.10056 2.79179 6.45966 3.79102 7.45889C4.79025 8.45812 6.14935 9.01349 7.56241 9H19.0499L13.1499 3.0625C12.9363 2.6868 13.0072 2.21377 13.3216 1.9172C13.6359 1.62063 14.1123 1.57739 14.4749 1.8125L21.9749 9.3125C22.0596 9.3992 22.1275 9.50093 22.1749 9.6125C22.275 9.84379 22.275 10.1062 22.1749 10.3375C22.1275 10.4491 22.0596 10.5508 21.9749 10.6375L14.4749 18.1375C14.1089 18.5031 13.5159 18.5031 13.1499 18.1375C12.7843 17.7715 12.7843 17.1785 13.1499 16.8125L19.0499 10.875H7.56241C5.65002 10.8953 3.81005 10.1445 2.45771 8.7922C1.10538 7.43986 0.354634 5.59989 0.374909 3.6875V1.1875C0.381642 0.672547 0.797456 0.256732 1.31241 0.25Z" fill="black"/>
</svg>
